<svg viewBox="0 0 32 33" xmlns="http://www.w3.org/2000/svg" xmlns:xlink="http://www.w3.org/1999/xlink">
  <defs>
    <rect id="a" width="32" height="32" rx="16"/>
  </defs>
  <g fill="none" stroke-width="1" fill-rule="evenodd">
    <g transform="translate(0 .5)">
      <rect stroke="#1DA1F2" stroke-width="1" x=".5" y=".5" width="31" height="31" rx="15.5"/>
    </g>
    <path d="M23.202 13.489a10.514 10.514 0 0 1-.424 3.455c-.29.988-.731 1.938-1.323 2.847a11.193 11.193 0 0 1-2.114 2.412c-.818.699-1.803 1.256-2.957 1.673a10.82 10.82 0 0 1-3.7.624c-2.07 0-3.965-.554-5.684-1.661.267.03.565.045.894.045 1.719 0 3.25-.527 4.595-1.58a3.608 3.608 0 0 1-2.155-.74 3.62 3.62 0 0 1-1.306-1.828c.252.039.485.058.7.058.328 0 .652-.042.973-.126a3.641 3.641 0 0 1-2.125-1.278 3.576 3.576 0 0 1-.843-2.355v-.045c.52.29 1.077.446 1.673.47a3.697 3.697 0 0 1-1.203-1.318 3.606 3.606 0 0 1-.447-1.765c0-.672.168-1.295.504-1.868a10.492 10.492 0 0 0 3.375 2.733 10.312 10.312 0 0 0 4.257 1.14 4.111 4.111 0 0 1-.092-.848c0-1.023.36-1.896 1.083-2.618A3.567 3.567 0 0 1 19.5 9.833c1.07 0 1.97.39 2.704 1.17a7.257 7.257 0 0 0 2.35-.895 3.593 3.593 0 0 1-1.628 2.04 7.374 7.374 0 0 0 2.131-.573 7.755 7.755 0 0 1-1.856 1.914z" fill="#1DA1F2"/>
  </g>
</svg>
