<svg  viewBox="0 0 32 33" version="1.1" xmlns="http://www.w3.org/2000/svg" xmlns:xlink="http://www.w3.org/1999/xlink">
  <defs>
    <rect id="path-1" x="0" y="0" width="32" height="32" rx="16"></rect>
  </defs>
  <g stroke="none" stroke-width="1" fill="none" fill-rule="evenodd">
    <g transform="translate(-19.000000, -302.000000)">
      <g transform="translate(19.000000, 302.500000)">
        <g>
          <g>
            <g>
              <g>
                <rect stroke="#3B5998" stroke-width="1" x="0.5" y="0.5" width="31" height="31" rx="15.5"></rect>
              </g>
              <path d="M14.1876581,24.5333324 L14.1876581,16.8459147 L11.4666667,16.8459147 L11.4666667,13.6895646 L14.1876581,13.6895646 L14.1876581,11.3631169 C14.1876581,10.0388945 14.5572558,9.01399793 15.2964621,8.28839658 C16.0356685,7.56279523 17.0220181,7.2 18.2555404,7.2 C19.2985923,7.2 20.1058117,7.24081446 20.6772228,7.32244462 L20.6772228,10.1386708 L19.017418,10.1522757 C18.4006568,10.1522757 17.9857098,10.2792541 17.7725644,10.5332145 C17.559419,10.787175 17.4528479,11.16811 17.4528479,11.6760309 L17.4528479,13.6895646 L20.5683831,13.6895646 L20.1602344,16.8459147 L17.4528479,16.8459147 L17.4528479,24.5333333 C17.4528479,24.5333324 14.1876581,24.5333324 14.1876581,24.5333324 Z" fill="#3B5998"></path>
            </g>
          </g>
        </g>
      </g>
    </g>
  </g>
</svg>
